<?xml version="1.0" standalone="no"?><!DOCTYPE svg PUBLIC "-//W3C//DTD SVG 1.1//EN" "http://www.w3.org/Graphics/SVG/1.1/DTD/svg11.dtd"><svg t="1562843088972" class="icon" viewBox="0 0 1024 1024" version="1.1" xmlns="http://www.w3.org/2000/svg" p-id="7201" xmlns:xlink="http://www.w3.org/1999/xlink" width="200" height="200"><defs><style type="text/css"></style></defs><path d="M870.4 991.573333c0 17.066667-13.653333 32.426667-32.426667 32.426667h-37.546666c-17.066667 0-32.426667-13.653333-32.426667-32.426667v-54.613333c0-17.066667 13.653333-32.426667 32.426667-32.426667h37.546666c17.066667 0 32.426667 13.653333 32.426667 32.426667v54.613333zM238.933333 991.573333c0 17.066667-13.653333 32.426667-32.426666 32.426667H168.96c-17.066667 0-32.426667-13.653333-32.426667-32.426667v-54.613333c0-17.066667 13.653333-32.426667 32.426667-32.426667h37.546667c17.066667 0 32.426667 13.653333 32.426666 32.426667v54.613333z" fill="#3E7777" p-id="7202"></path><path d="M989.866667 860.16c0 52.906667-40.96 95.573333-93.866667 95.573333H128c-52.906667 0-93.866667-42.666667-93.866667-95.573333v-768C34.133333 39.253333 75.093333 0 128 0h768c52.906667 0 93.866667 39.253333 93.866667 90.453333v769.706667z" fill="#97B8BF" p-id="7203"></path><path d="M989.866667 256l-134.826667-134.826667-699.733333 699.733334 129.706666 133.12H896c52.906667 0 93.866667-42.666667 93.866667-95.573334V256z" fill="#719FA3" p-id="7204"></path><path d="M887.466667 771.413333c0 40.96-39.253333 81.92-78.506667 81.92H215.04C174.08 853.333333 136.533333 812.373333 136.533333 771.413333V179.2c0-40.96 39.253333-76.8 78.506667-76.8h593.92c40.96 0 78.506667 35.84 78.506667 76.8v592.213333z" fill="#B9D7DB" p-id="7205"></path><path d="M136.533333 385.706667L602.453333 853.333333h172.373334L163.84 240.64 136.533333 261.12zM136.533333 728.746667l122.88 124.586666h170.666667L163.84 585.386667 136.533333 604.16z" fill="#99BEC1" p-id="7206"></path><path d="M187.733333 361.813333c0 17.066667-13.653333 30.72-30.72 30.72h-8.533333c-17.066667 0-30.72-13.653333-30.72-30.72v-93.866666c0-17.066667 13.653333-30.72 30.72-30.72h8.533333c17.066667 0 30.72 13.653333 30.72 30.72v93.866666zM187.733333 703.146667c0 17.066667-13.653333 30.72-30.72 30.72h-8.533333c-17.066667 0-30.72-13.653333-30.72-30.72v-93.866667c0-17.066667 13.653333-30.72 30.72-30.72h8.533333c17.066667 0 30.72 13.653333 30.72 30.72v93.866667z" fill="#CAE8EA" p-id="7207"></path><path d="M157.013333 238.933333c17.066667 0 30.72 13.653333 30.72 30.72v93.866667c0 17.066667-13.653333 30.72-30.72 30.72M157.013333 580.266667c17.066667 0 30.72 13.653333 30.72 30.72v93.866666c0 17.066667-13.653333 30.72-30.72 30.72" fill="#BAE1E2" p-id="7208"></path><path d="M663.893333 184.32c-90.453333 0-165.546667 73.386667-165.546666 165.546667 0 90.453333 73.386667 165.546667 165.546666 165.546666s165.546667-73.386667 165.546667-165.546666c0-92.16-75.093333-165.546667-165.546667-165.546667z m0 267.946667c-56.32 0-102.4-46.08-102.4-102.4s46.08-102.4 102.4-102.4 102.4 46.08 102.4 102.4-46.08 102.4-102.4 102.4z" fill="#05365B" p-id="7209"></path><path d="M663.893333 349.866667m-42.666666 0a42.666667 42.666667 0 1 0 85.333333 0 42.666667 42.666667 0 1 0-85.333333 0Z" fill="#24966A" p-id="7210"></path><path d="M692.906667 319.146667c17.066667 17.066667 17.066667 42.666667 0 59.733333s-42.666667 17.066667-59.733334 0" fill="#137F53" p-id="7211"></path><path d="M904.533333 34.133333c0 10.24-6.826667 17.066667-17.066666 17.066667H136.533333c-10.24 0-17.066667-6.826667-17.066666-17.066667s6.826667-17.066667 17.066666-17.066666h750.933334c10.24 0 17.066667 6.826667 17.066666 17.066666z" fill="#A6C7C9" p-id="7212"></path><path d="M616.106667 566.613333c0 3.413333-3.413333 6.826667-6.826667 6.826667h-18.773333c-3.413333 0-6.826667-3.413333-6.826667-6.826667V546.133333c0-3.413333 3.413333-6.826667 6.826667-6.826666h18.773333c3.413333 0 6.826667 3.413333 6.826667 6.826666v20.48zM682.666667 566.613333c0 3.413333-3.413333 6.826667-6.826667 6.826667H657.066667c-3.413333 0-6.826667-3.413333-6.826667-6.826667V546.133333c0-3.413333 3.413333-6.826667 6.826667-6.826666h18.773333c3.413333 0 6.826667 3.413333 6.826667 6.826666v20.48zM747.52 566.613333c0 3.413333-3.413333 6.826667-6.826667 6.826667h-18.773333c-3.413333 0-6.826667-3.413333-6.826667-6.826667V546.133333c0-3.413333 3.413333-6.826667 6.826667-6.826666h18.773333c3.413333 0 6.826667 3.413333 6.826667 6.826666v20.48zM616.106667 621.226667c0 3.413333-3.413333 6.826667-6.826667 6.826666h-18.773333c-3.413333 0-6.826667-3.413333-6.826667-6.826666v-18.773334c0-3.413333 3.413333-6.826667 6.826667-6.826666h18.773333c3.413333 0 6.826667 3.413333 6.826667 6.826666v18.773334zM682.666667 621.226667c0 3.413333-3.413333 6.826667-6.826667 6.826666H657.066667c-3.413333 0-6.826667-3.413333-6.826667-6.826666v-18.773334c0-3.413333 3.413333-6.826667 6.826667-6.826666h18.773333c3.413333 0 6.826667 3.413333 6.826667 6.826666v18.773334zM747.52 621.226667c0 3.413333-3.413333 6.826667-6.826667 6.826666h-18.773333c-3.413333 0-6.826667-3.413333-6.826667-6.826666v-18.773334c0-3.413333 3.413333-6.826667 6.826667-6.826666h18.773333c3.413333 0 6.826667 3.413333 6.826667 6.826666v18.773334zM616.106667 677.546667c0 3.413333-3.413333 6.826667-6.826667 6.826666h-18.773333c-3.413333 0-6.826667-3.413333-6.826667-6.826666v-18.773334c0-3.413333 3.413333-6.826667 6.826667-6.826666h18.773333c3.413333 0 6.826667 3.413333 6.826667 6.826666v18.773334zM682.666667 677.546667c0 3.413333-3.413333 6.826667-6.826667 6.826666H657.066667c-3.413333 0-6.826667-3.413333-6.826667-6.826666v-18.773334c0-3.413333 3.413333-6.826667 6.826667-6.826666h18.773333c3.413333 0 6.826667 3.413333 6.826667 6.826666v18.773334zM747.52 677.546667c0 3.413333-3.413333 6.826667-6.826667 6.826666h-18.773333c-3.413333 0-6.826667-3.413333-6.826667-6.826666v-18.773334c0-3.413333 3.413333-6.826667 6.826667-6.826666h18.773333c3.413333 0 6.826667 3.413333 6.826667 6.826666v18.773334z" fill="#137F53" p-id="7213"></path></svg>