<?xml version="1.0" standalone="no"?><!DOCTYPE svg PUBLIC "-//W3C//DTD SVG 1.1//EN" "http://www.w3.org/Graphics/SVG/1.1/DTD/svg11.dtd"><svg t="1562843065554" class="icon" viewBox="0 0 1024 1024" version="1.1" xmlns="http://www.w3.org/2000/svg" p-id="6569" xmlns:xlink="http://www.w3.org/1999/xlink" width="200" height="200"><defs><style type="text/css"></style></defs><path d="M892.562 351.188v612.14c0 33.508-27.148 60.672-60.648 60.672H68.68C35.172 1024 8.032 996.836 8.032 963.328v-612.14z m0 0" fill="#ECECEE" p-id="6570"></path><path d="M892.562 963.328v-612.14H8.032v402.78c19.608 56.4 45.406 110.696 79.35 156.688 32.922 44.61 85.68 71.25 141.118 71.25h661.156a60.828 60.828 0 0 0 2.906-18.578z m0 0" fill="#DADADC" p-id="6571"></path><path d="M1008.29 854.656c-120.814-185.968-115.728-503.468-115.728-503.468l-442.266-46.734L8.032 351.188s-5.454 340.46 129.086 522.772a113.592 113.592 0 0 0 91.382 46.134h744.61c33.616 0 53.492-37.25 35.18-65.438z m0 0" fill="#ECECEE" p-id="6572"></path><path d="M313.43 512.796l-17.64 10.946c-5.47 3.648-10.946 4.868-15.204 4.868-17.64 0-29.804-18.852-29.804-37.712 0-12.774 5.468-24.938 17.632-32.24L348.71 410c4.868-3.046 10.954-4.258 17.64-4.258 19.462 0 41.97 11.554 41.97 29.804v386.86c0 19.47-23.72 29.204-47.444 29.204-23.72 0-47.446-9.736-47.446-29.204z m0 0M771.72 512.188c0 15.812-9.728 39.54-19.462 57.788L609.92 842.484c-4.868 9.126-13.992 12.774-26.766 12.774-29.804 0-60.22-20.68-60.22-48.054 0-5.478 1.212-10.344 4.26-15.814l149.632-259.132v-42.58h-108.882v40.76c0 16.42-23.11 29.194-48.048 29.194-25.554 0-46.844-12.772-46.844-29.194v-94.29c0-14.594 20.688-29.194 41.368-29.194H730.36c18.25 0 41.36 14.6 41.36 29.194z m0 0" fill="#FF7F5A" p-id="6573"></path><path d="M892.562 351.188V152.086c0-33.5-27.148-60.664-60.648-60.664H68.68C35.172 91.42 8.032 118.586 8.032 152.086v199.1z m0 0" fill="#1FD7C3" p-id="6574"></path><path d="M178.164 234.36c57.922 0 105.04-47.118 105.04-105.04V91.414H73.118V129.32c0 57.922 47.116 105.04 105.046 105.04z m0 0" fill="#00BBC9" p-id="6575"></path><path d="M178.164 0c-29.57 0-53.54 23.968-53.54 53.54v75.78c0 29.562 23.97 53.532 53.54 53.532 29.562 0 53.532-23.97 53.532-53.532V53.54C231.696 23.968 207.726 0 178.164 0z m0 0" fill="#FFE76C" p-id="6576"></path><path d="M722.43 234.36c57.92 0 105.046-47.118 105.046-105.04V91.414H617.382V129.32c0 57.922 47.126 105.04 105.048 105.04z m0 0" fill="#00BBC9" p-id="6577"></path><path d="M722.43 0c29.57 0 53.54 23.968 53.54 53.54v75.78c0 29.562-23.97 53.532-53.54 53.532s-53.54-23.97-53.54-53.532V53.54c0-29.572 23.978-53.54 53.54-53.54z m0 0" fill="#FFE76C" p-id="6578"></path><path d="M286.804 259.14a15.452 15.452 0 0 1-15.452-15.452V214.1a15.452 15.452 0 1 1 30.906 0v29.586a15.448 15.448 0 0 1-15.454 15.452z m0 0M613.78 259.14a15.452 15.452 0 0 1-15.452-15.452V214.1a15.452 15.452 0 1 1 30.906 0v29.586a15.448 15.448 0 0 1-15.452 15.452z m0 0M450.296 274.938c-20.186 0-39.132-8.43-51.984-23.134a15.456 15.456 0 0 1 1.46-21.804 15.456 15.456 0 0 1 21.806 1.46c6.984 7.994 17.454 12.572 28.72 12.572 11.264 0 21.734-4.58 28.718-12.572 5.616-6.42 15.374-7.078 21.804-1.46s7.08 15.376 1.46 21.804c-12.85 14.704-31.796 23.134-51.984 23.134z m0 0" fill="#444F5C" p-id="6579"></path></svg>